<?xml version="1.0"?>
<svg xmlns="http://www.w3.org/2000/svg" xmlns:xlink="http://www.w3.org/1999/xlink" version="1.1" id="Capa_1" x="0px" y="0px" viewBox="0 0 230 230" style="enable-background:new 0 0 230 230;" xml:space="preserve" width="512px" height="512px"><g><path d="M221.428,221.386L205.47,6.943C205.178,3.028,201.916,0,197.99,0h-165c-3.913,0-7.168,3.008-7.477,6.909l-17,215  c-0.165,2.085,0.549,4.145,1.968,5.681c1.42,1.536,3.417,2.41,5.509,2.41h198c0.008,0,0.016,0,0.02,0c4.143,0,7.5-3.357,7.5-7.5  C221.51,222.121,221.482,221.749,221.428,221.386z M146.157,32.58c0,8.516-6.904,15.42-15.42,15.42h-33.16  c-8.516,0-15.42-6.904-15.42-15.42v-0.16c0-8.516,6.904-15.42,15.42-15.42h33.16c8.516,0,15.42,6.904,15.42,15.42V32.58z" data-original="#000000" class="active-path" data-old_color="#000000" fill="#C62727"/></g> </svg>
