<?xml version="1.0"?>
<svg xmlns="http://www.w3.org/2000/svg" xmlns:xlink="http://www.w3.org/1999/xlink" version="1.1" id="Capa_1" x="0px" y="0px" viewBox="0 0 279 279" style="enable-background:new 0 0 279 279;" xml:space="preserve" width="512px" height="512px"><g><path d="M277.411,115.884c-1.422-1.82-3.602-2.884-5.911-2.884h-68.333V63.006C203.167,27.988,175.083,0,140.066,0h-1.132  c-35.018,0-63.768,27.988-63.768,63.006V113H7.5c-2.31,0-4.489,1.063-5.911,2.884c-1.421,1.82-1.925,4.193-1.365,6.434l37.715,151  c0.834,3.34,3.834,5.683,7.276,5.683h188.571c3.442,0,6.442-2.343,7.276-5.683l37.714-151  C279.336,120.077,278.832,117.704,277.411,115.884z M90.167,63.006C90.167,36.26,112.188,15,138.935,15h1.132  c26.746,0,48.101,21.26,48.101,48.006V113h-98V63.006z" data-original="#000000" class="active-path" data-old_color="#000000" fill="#D22727"/></g> </svg>
